<svg xmlns="http://www.w3.org/2000/svg" xml:space="preserve" width="800" height="800" fill="#123456" stroke="#123456" viewBox="0 0 512 512"><path d="M490.667 0H21.333C9.536 0 0 9.557 0 21.333v469.333C0 502.443 9.536 512 21.333 512h469.333c11.797 0 21.333-9.557 21.333-21.333V21.333C512 9.557 502.464 0 490.667 0zm-85.334 405.333H106.667c-11.797 0-21.333-9.557-21.333-21.333s9.536-21.333 21.333-21.333h298.667c11.797 0 21.333 9.557 21.333 21.333s-9.536 21.333-21.334 21.333zm0-128H106.667c-11.797 0-21.333-9.557-21.333-21.333s9.536-21.333 21.333-21.333h298.667c11.797 0 21.333 9.557 21.333 21.333s-9.536 21.333-21.334 21.333zm0-128H106.667c-11.797 0-21.333-9.557-21.333-21.333s9.536-21.333 21.333-21.333h298.667c11.797 0 21.333 9.557 21.333 21.333s-9.536 21.333-21.334 21.333z"/></svg>