<svg xmlns="http://www.w3.org/2000/svg" width="64" height="64" fill="#123456" stroke="#123456" viewBox="0 -6.5 38 38"><defs><linearGradient id="a" x1="50%" x2="50%" y1="0%" y2="100%"><stop offset="0%" stop-color="#12345623456"/><stop offset="100%" stop-color="#123456"/></linearGradient></defs><path fill="url(#a)" fill-rule="nonzero" stroke="none" d="m317.812 39.58 10.513 10.424.088.082c.352.349.557.809.587 1.352l-.002.183c-.025.43-.19.842-.514 1.21l-.123.127-10.549 10.462a2.005 2.005 0 0 1-2.822 0 1.985 1.985 0 0 1 0-2.822l7.284-7.224H293c-1.102 0-1.999-.889-1.999-1.99 0-1.102.897-1.992 2-1.992h29.04l-7.05-6.99a1.985 1.985 0 0 1 0-2.822 2.005 2.005 0 0 1 2.822 0Z" transform="matrix(-1 0 0 1 329 -39)"/></svg>